<svg xmlns="http://www.w3.org/2000/svg" width="132.367" height="132.368" viewBox="0 0 132.367 132.368">
  <path id="Path_19" data-name="Path 19" d="M446.04,192.467h0a24.27,24.27,0,0,0-9.5-44.469,24.211,24.211,0,0,0-44.469-9.366A24.21,24.21,0,0,0,347.6,148a24.27,24.27,0,0,0-9.5,44.469h0a24.27,24.27,0,0,0,9.5,44.469,24.21,24.21,0,0,0,44.468,9.366,24.211,24.211,0,0,0,44.469-9.366,24.27,24.27,0,0,0,9.5-44.469ZM395.892,233.4s-.4-3.165-.992-6.447a20.181,20.181,0,0,0-9.257-13.612,32.331,32.331,0,0,0-5.339-2.631,11.461,11.461,0,1,0-.984,7.919,16.639,16.639,0,0,1-7.413,31.383,16.876,16.876,0,0,1-16.924-16.928v-3.524h-3.526a16.877,16.877,0,0,1-16.927-16.919,16.654,16.654,0,0,1,16.612-16.352h.026a23.288,23.288,0,0,0,13.066-3.821,24.251,24.251,0,0,0,9.6-11.768,11.463,11.463,0,1,0-7.919-.984A16.639,16.639,0,0,1,334.53,172.3a16.875,16.875,0,0,1,16.927-16.923h3.525v-3.526A16.875,16.875,0,0,1,371.9,134.925a16.659,16.659,0,0,1,16.3,15.265,20.286,20.286,0,0,0,.453,3.044c.771,3.228,2.476,9.508,3.422,10.85a25.328,25.328,0,0,0,11.769,10.143,11.463,11.463,0,1,0,.984-7.919,16.639,16.639,0,0,1,7.413-31.383,16.875,16.875,0,0,1,16.924,16.927v3.525h3.526a16.876,16.876,0,0,1,16.927,16.918A16.657,16.657,0,0,1,433,188.648h-.026a23.292,23.292,0,0,0-13.066,3.82,24.254,24.254,0,0,0-9.6,11.769,11.461,11.461,0,1,0,7.919.983,16.639,16.639,0,0,1,31.383,7.414,16.876,16.876,0,0,1-16.928,16.924h-3.524v3.525a16.877,16.877,0,0,1-16.918,16.928A16.656,16.656,0,0,1,395.892,233.4v-.026m-22.917-20.026a3.82,3.82,0,1,1-3.82-3.819A3.825,3.825,0,0,1,372.976,213.346Zm-5.6-43.795a3.82,3.82,0,1,1,3.819,3.819A3.824,3.824,0,0,1,367.374,169.551Zm43.8,2.037a3.82,3.82,0,1,1,3.82,3.819A3.824,3.824,0,0,1,411.169,171.588Zm5.6,43.795a3.82,3.82,0,1,1-3.819-3.819A3.825,3.825,0,0,1,416.771,215.383Z" transform="translate(-325.889 -126.283)" fill="#4384f1" stroke="#4384f1" stroke-miterlimit="10" stroke-width="2"/>
</svg>
