<svg xmlns="http://www.w3.org/2000/svg" xmlns:xlink="http://www.w3.org/1999/xlink" width="1919.591" height="1184.485" viewBox="0 0 1919.591 1184.485">
  <defs>
    <clipPath id="clip-path">
      <path id="Path_40" data-name="Path 40" d="M172.182,0s-59.324,147.039-56.874,431.423,61.486,425.929,25.565,646.327c-14.656,89.922-67.628,282.61-95.23,436.594C11.356,1692.084,0,1919.591,0,1919.591H1184.485V0Z" transform="translate(1919.591 4634) rotate(90)" fill="#4384f1"/>
    </clipPath>
  </defs>
  <g id="Mask_Group_11" data-name="Mask Group 11" transform="translate(0 -4634)" clip-path="url(#clip-path)">
    <path id="Path_29" data-name="Path 29" d="M172.182,0s-59.324,147.039-56.874,431.423,61.486,425.929,25.565,646.327c-14.656,89.922-67.628,282.61-95.23,436.594C11.356,1692.084,0,1919.591,0,1919.591H1184.485V0Z" transform="translate(1919.591 4634) rotate(90)" fill="#4384f1"/>
    <g id="Group_41" data-name="Group 41" transform="translate(251.924 4933.439)" opacity="0.15">
      <path id="Path_1" data-name="Path 1" d="M958.977,419.222" transform="translate(264.883 278.859)" fill="#fff"/>
      <path id="Path_2" data-name="Path 2" d="M1049.118,269.888" transform="translate(360.22 120.917)" fill="#fff"/>
      <g id="Group_2" data-name="Group 2" transform="translate(708.531 390.427)">
        <path id="Path_3" data-name="Path 3" d="M1076.9,269.7H1016.19V363.38H837.67c-43.128,0-67.982,6.078-91.365,29q-35.1,34.426-35.071,76.238,0,45.892,32.377,75.561Q776,573.87,824.571,576.562l56.66,4.046q49.9,5.4,49.927,52.624,0,21.59-24.289,37.1t-48.577,15.508q-66.115,0-105.242-40.478L708.531,684.5q48.578,62.063,149.761,62.064,56.667,0,95.131-33.066,38.439-33.04,38.445-80.268,0-45.862-31.707-77.584-31.717-31.7-78.931-35.764l-56.66-4.037q-52.63-4.037-52.632-47.227,0-20.242,16.875-35.087c11.231-9.879,24.949-11.422,48.357-11.275,67.767.427,179.02,1.839,179.02,1.839V614.334q0,52.611,37.772,90.4,37.759,37.775,91.75,37.771h48.573V681.8h-48.573q-29.689,0-49.246-19.562-19.577-19.552-19.563-47.9V424.1h118.736V363.38H1076.9Z" transform="translate(-708.531 -269.704)" fill="#fff"/>
        <path id="Path_4" data-name="Path 4" d="M1015.457,896.811V319.335h60.722V357.11q55.295-48.56,128.177-48.563,82.292,0,139.646,58.007,57.331,58.029,57.335,141.673,0,83.677-57.335,141.66-57.388,58.041-139.646,58.03-72.87,0-128.177-48.577V896.811Zm60.722-341.355a141.229,141.229,0,0,0,49.251,66.11q34.395,25.63,78.926,25.626,56.659,0,96.463-41.141,39.781-41.142,39.8-97.824,0-56.677-39.8-97.812-39.823-41.149-96.463-41.167-44.521,0-78.926,25.645A141.307,141.307,0,0,0,1076.179,461Z" transform="translate(-383.913 -228.622)" fill="#fff"/>
        <g id="Group_1" data-name="Group 1" transform="translate(529.082 93.21)">
          <rect id="Rectangle_1" data-name="Rectangle 1" width="68.101" height="382.633" fill="#fff"/>
        </g>
      </g>
      <path id="Path_5" data-name="Path 5" d="M1281.514,195.5s13.746-18.957-3.68-33.212c-16.233-13.28-34.947-2.8-34.947-2.8l-195.42,206.7-73.649-80.353s-17.444-14.743-34.7-2.07-4.234,37.76-4.234,37.76l112.241,122.456Z" transform="translate(234.421 0)" fill="#fff"/>
    </g>
  </g>
</svg>
