<svg version="1.1" id="Livello_1" xmlns="http://www.w3.org/2000/svg" xmlns:xlink="http://www.w3.org/1999/xlink" x="0px" y="0px"
	 viewBox="0 0 100 100" style="enable-background:new 0 0 100 100;" xml:space="preserve">
<style type="text/css">
	.st1{fill:#0062FF;}
</style>
<g>
	<g>
		<path class="st1" d="M37,30h-5.6v8.7c-1.9,0-13.8,0-16.5,0c-4,0-6.3,0.6-8.4,2.7c-2.2,2.1-3.2,4.5-3.2,7c0,2.8,1,5.2,3,7
			c2,1.8,4.5,2.8,7.5,3l5.2,0.4c3.1,0.3,4.6,2,4.6,4.9c0,1.3-0.7,2.5-2.2,3.4c-1.5,1-3,1.4-4.5,1.4c-4.1,0-7.3-1.2-9.7-3.7L3,68.3
			c3,3.8,7.6,5.7,13.8,5.7c3.5,0,6.4-1,8.8-3.1c2.4-2,3.6-4.5,3.6-7.4c0-2.8-1-5.2-2.9-7.2c-2-2-4.4-3.1-7.3-3.3l-5.2-0.4
			c-3.2-0.2-4.9-1.7-4.9-4.4c0-1.2,0.5-2.3,1.6-3.2c1-0.9,2.3-1.1,4.5-1c6.3,0,16.5,0.2,16.5,0.2v17.6c0,3.2,1.2,6,3.5,8.4
			c2.3,2.3,5.2,3.5,8.5,3.5h4.5v-5.6h-4.5c-1.8,0-3.3-0.6-4.5-1.8C37.6,65,37,63.6,37,61.8V44.2h11v-5.6H37V30z"/>
		<path class="st1" d="M61.3,91.7V38.4H67v3.5c3.4-3,7.4-4.5,11.8-4.5c5.1,0,9.4,1.8,12.9,5.4c3.5,3.6,5.3,7.9,5.3,13.1
			c0,5.2-1.8,9.5-5.3,13.1c-3.5,3.6-7.8,5.4-12.9,5.4c-4.5,0-8.4-1.5-11.8-4.5v21.9H61.3z M67,60.2c0.9,2.5,2.4,4.5,4.6,6.1
			c2.1,1.6,4.5,2.4,7.3,2.4c3.5,0,6.5-1.3,8.9-3.8c2.5-2.5,3.7-5.5,3.7-9c0-3.5-1.2-6.5-3.7-9c-2.5-2.5-5.4-3.8-8.9-3.8
			c-2.7,0-5.2,0.8-7.3,2.4c-2.1,1.6-3.6,3.6-4.6,6.1V60.2z"/>
		<g>
			<rect x="51.9" y="38.6" class="st1" width="6.3" height="35.4"/>
		</g>
	</g>
	<path class="st1" d="M77.6,12c0,0,1.3-1.8-0.3-3.1C75.8,7.7,74,8.6,74,8.6L56,27.7l-6.8-7.4c0,0-1.6-1.4-3.2-0.2
		c-1.6,1.2-0.4,3.5-0.4,3.5l10.4,11.3L77.6,12z"/>
</g>
</svg>
