<svg xmlns="http://www.w3.org/2000/svg" width="183.564" height="36.084" viewBox="0 0 183.564 36.084">
  <g id="Group_43" data-name="Group 43" transform="translate(-848 -5608)">
    <g id="facebook-letter-logo" transform="translate(939.51 5608.084)">
      <path id="Facebook" d="M118.325,6.969v4.953H114.7v6.057h3.629v18h7.455v-18h5s.469-2.9.7-6.08h-5.67V7.758a1.759,1.759,0,0,1,1.616-1.452h4.062V0h-5.522C118.141,0,118.325,6.064,118.325,6.969Z" transform="translate(-114.696 -0.001)" fill="#fff"/>
    </g>
    <g id="linkedin-logo" transform="translate(995.587 5608)">
      <path id="LinkedIn__x28_alt_x29_" d="M33.323,0H2.66A2.619,2.619,0,0,0,0,2.578V33.4A2.62,2.62,0,0,0,2.66,35.978H33.323A2.619,2.619,0,0,0,35.979,33.4V2.578A2.618,2.618,0,0,0,33.323,0ZM10.909,30.116H5.473V13.872h5.436ZM8.192,11.653H8.155a2.815,2.815,0,1,1,.071-5.612,2.816,2.816,0,1,1-.034,5.612ZM30.5,30.116H25.07V21.425c0-2.184-.787-3.674-2.753-3.674a2.969,2.969,0,0,0-2.788,1.976,3.63,3.63,0,0,0-.181,1.316v9.073H13.915s.071-14.72,0-16.243h5.434v2.3a5.4,5.4,0,0,1,4.9-2.685c3.577,0,6.259,2.32,6.259,7.312ZM19.314,16.226c.009-.015.022-.034.035-.051v.051Z" transform="translate(-0.002)" fill="#fff"/>
    </g>
    <g id="twitter-logo" transform="translate(848 5608)">
      <path id="Twitter__x28_alt_x29_" d="M46.445,82.949c2.942-.243,4.937-1.58,5.705-3.395-1.061.652-4.355,1.363-6.175.686-.089-.427-.189-.833-.287-1.2-1.386-5.09-6.133-9.191-11.106-8.7.4-.162.81-.314,1.217-.45.547-.2,3.759-.719,3.253-1.852-.426-1-4.35.754-5.089.982.975-.367,2.588-1,2.761-2.118a7.79,7.79,0,0,0-4.095,1.939,2.815,2.815,0,0,0,.785-1.555c-3.985,2.546-6.314,7.679-8.2,12.658a19.531,19.531,0,0,0-3.967-3.19A103.41,103.41,0,0,0,7.814,70.843c-.19,2.049,1.013,4.774,4.482,6.586a10.967,10.967,0,0,0-3.224.387c.448,2.348,1.909,4.282,5.866,5.217a4.793,4.793,0,0,0-3.59,1.418,6.08,6.08,0,0,0,6.449,3.16c-4.02,1.732-1.639,4.941,1.632,4.462A13.889,13.889,0,0,1,0,92.592c13.189,17.971,41.858,10.628,46.131-6.682a7.936,7.936,0,0,0,6.25-2.361A12.751,12.751,0,0,1,46.445,82.949Z" transform="translate(0 -66.906)" fill="#fff"/>
    </g>
  </g>
</svg>
