<?xml version="1.0" encoding="utf-8"?>
<!-- Generator: Adobe Illustrator 22.0.1, SVG Export Plug-In . SVG Version: 6.00 Build 0)  -->
<svg version="1.1" id="fa5e9963-be56-4fcb-a961-77b5aada95f1"
	 xmlns="http://www.w3.org/2000/svg" xmlns:xlink="http://www.w3.org/1999/xlink" x="0px" y="0px" viewBox="0 0 1013.6 769.8"
	 style="enable-background:new 0 0 1013.6 769.8;" xml:space="preserve">
<style type="text/css">
	.st0{opacity:0.1;fill:#6C63FF;enable-background:new    ;}
	.st1{opacity:0.1;}
	.st2{fill:#3F3D56;}
	.st3{fill:#6C63FF;}
	.st4{opacity:0.1;enable-background:new    ;}
	.st5{fill:#192534;}
	.st6{fill:#55ACEE;}
	.st7{fill:#3B5998;}
	.st8{fill:#E53C5F;}
	.st9{fill:#007BB6;}
	.st10{fill:#FFFFFF;}
	.st11{fill:#FFFFFF;stroke:#000000;stroke-width:1.4764;stroke-miterlimit:10;}
	.st12{fill:#4384F1;stroke:#000000;stroke-width:1.4227;stroke-miterlimit:10;}
	.st13{fill:none;stroke:#000000;stroke-width:1.4764;stroke-linecap:round;stroke-miterlimit:10;}
	.st14{fill:none;stroke:#000000;stroke-width:1.4764;stroke-miterlimit:10;}
</style>
<title>buffer</title>
<path class="st0" d="M935.2,718.2L831.5,538.6c-0.9-1.6-2.9-2.1-4.5-1.2c-0.5,0.3-0.9,0.7-1.2,1.2L722,718.2
	c-0.9,1.6-0.4,3.6,1.1,4.5c0.5,0.3,1.1,0.5,1.7,0.5h30.9c1.8,0,3.3,1.5,3.3,3.3v38.3c0,1.8,1.5,3.3,3.3,3.3h40.3
	c1.8,0,3.3-1.5,3.3-3.3v-18.5c0-1.8,1.5-3.3,3.3-3.3h38.4c1.8,0,3.3,1.5,3.3,3.3v18.5c0,1.8,1.5,3.3,3.3,3.3h40.4
	c1.8,0,3.3-1.5,3.3-3.3v-38.4c0-1.8,1.5-3.3,3.3-3.3h30.9c1.8,0,3.3-1.5,3.3-3.3C935.7,719.3,935.5,718.7,935.2,718.2z M790.6,738.1
	c-0.6,0.6-1.5,1-2.3,1h-14.6c-1.8,0-3.3-1.5-3.3-3.3c0-1.8,1.5-3.3,3.3-3.3h14.6c1.8,0,3.3,1.5,3.3,3.3
	C791.6,736.7,791.2,737.5,790.6,738.1L790.6,738.1z M885.9,738.1c-0.6,0.6-1.5,1-2.3,1H869c-1.8,0-3.3-1.5-3.3-3.3
	c0-1.8,1.5-3.3,3.3-3.3h14.5c1.8,0,3.3,1.5,3.3,3.3C886.9,736.7,886.5,737.5,885.9,738.1L885.9,738.1z"/>
<path class="st0" d="M294.1,719.8L190.4,540.2c-0.9-1.6-2.9-2.1-4.5-1.2c-0.5,0.3-0.9,0.7-1.2,1.2L95.1,695.3
	c11.2,14.1,23.8,27.1,37.5,38.7h14.6c1.8,0,3.3,1.5,3.3,3.3c0,1.8-1.5,3.3-3.3,3.3H141c7.5,5.7,15.6,10.7,24,14.9v-7.7
	c0-1.8,1.5-3.3,3.3-3.3h38.5c1.8,0,3.3,1.5,3.3,3.3v18.5c0,0.5,0.1,1,0.3,1.4c0.5,1.2,1.7,1.9,3,1.9h40.4c1,0,2-0.5,2.6-1.3
	c0.4-0.6,0.7-1.3,0.7-2v-38.3c0-1.8,1.5-3.3,3.3-3.3h30.9c1.8,0,3.3-1.5,3.3-3.4C294.6,720.8,294.4,720.3,294.1,719.8z M225.6,735
	c0.6-0.6,1.5-1,2.3-1h14.6c1.8,0,3.3,1.5,3.3,3.3c0,1.8-1.5,3.3-3.3,3.3h-14.6c-1.8,0-3.3-1.5-3.3-3.3
	C224.6,736.4,224.9,735.6,225.6,735L225.6,735z M160.4,668.5c-1.8,0-3.3-1.5-3.3-3.3v-25.1c0-1.8,1.5-3.3,3.3-3.3h54.3
	c1.8,0,3.3,1.5,3.3,3.3v25.1c0,1.8-1.5,3.3-3.3,3.3H160.4z"/>
<path class="st0" d="M704.1,397.1H575.8v-27.8c0-3.7-3-6.6-6.6-6.6l0,0h-37.7v-29.6c0-2.3-1.9-4.2-4.2-4.2h-48.6
	c-2.3,0-4.2,1.9-4.2,4.2v29.6h-44.3c-3.7,0-6.6,3-6.6,6.6v0v27.8H301.2c-0.7,0-1.3,0.6-1.3,1.4V767c0,0.7,0.6,1.3,1.3,1.3h81.3
	c0.7,0,1.4-0.6,1.4-1.3v-49.6c0-0.7,0.6-1.3,1.4-1.3h34.4c0.7,0,1.3,0.6,1.3,1.3V767c0,0.7,0.6,1.3,1.3,1.3H583
	c0.7,0,1.3-0.6,1.3-1.3v-49.6c0-0.7,0.6-1.3,1.3-1.3h34.4c0.7,0,1.3,0.6,1.3,1.3V767c0,0.7,0.6,1.3,1.3,1.3h81.3
	c0.7,0,1.3-0.6,1.3-1.3V398.4C705.5,397.7,704.9,397.1,704.1,397.1z M369.3,698.8c0,0.7-0.6,1.3-1.3,1.3h0h-50.2
	c-0.7,0-1.3-0.6-1.3-1.3c0,0,0,0,0,0v-17.2c0-0.7,0.6-1.3,1.4-1.3H368c0.7,0,1.3,0.6,1.3,1.3V698.8z M369.3,654.5
	c0,0.7-0.6,1.3-1.3,1.3c0,0,0,0,0,0h-50.2c-0.7,0-1.3-0.6-1.4-1.3c0,0,0,0,0,0v-17.1c0-0.7,0.6-1.3,1.3-1.3c0,0,0,0,0,0H368
	c0.7,0,1.3,0.6,1.3,1.3c0,0,0,0,0,0V654.5z M369.3,610.1c0,0.7-0.6,1.3-1.3,1.3h-50.2c-0.7,0-1.4-0.6-1.4-1.3V593
	c0-0.7,0.6-1.3,1.4-1.3H368c0.7,0,1.3,0.6,1.3,1.3V610.1z M369.3,565.8c0,0.7-0.6,1.3-1.3,1.3c0,0,0,0,0,0h-50.2
	c-0.7,0-1.3-0.6-1.4-1.3c0,0,0,0,0,0v-17.1c0-0.7,0.6-1.3,1.3-1.3c0,0,0,0,0,0H368c0.7,0,1.3,0.6,1.3,1.3c0,0,0,0,0,0V565.8z
	 M369.3,521.5c0,0.7-0.6,1.3-1.3,1.3h-50.2c-0.7,0-1.4-0.6-1.4-1.3v-17.2c0-0.7,0.6-1.3,1.3-1.3c0,0,0,0,0,0H368
	c0.7,0,1.3,0.6,1.3,1.3l0,0V521.5z M369.3,477.1c0,0.7-0.6,1.3-1.3,1.3h0h-50.2c-0.7,0-1.3-0.6-1.3-1.3c0,0,0,0,0,0V460
	c0-0.7,0.6-1.3,1.4-1.3H368c0.7,0,1.3,0.6,1.3,1.3V477.1z M369.3,432.8c0,0.7-0.6,1.3-1.3,1.3c0,0,0,0,0,0h-50.2
	c-0.7,0-1.3-0.6-1.4-1.3c0,0,0,0,0,0v-17.1c0-0.7,0.6-1.3,1.3-1.4c0,0,0,0,0,0H368c0.7,0,1.3,0.6,1.3,1.3c0,0,0,0,0,0V432.8z
	 M488.4,698.8c0,0.7-0.6,1.3-1.3,1.3c0,0,0,0,0,0h-50.3c-0.7,0-1.3-0.6-1.3-1.3v-17.1c0-0.7,0.6-1.3,1.3-1.3H487
	c0.7,0,1.3,0.6,1.3,1.3L488.4,698.8z M488.4,654.4c0,0.7-0.6,1.3-1.3,1.3c0,0,0,0,0,0h-50.3c-0.7,0-1.3-0.6-1.3-1.3v-17.1
	c0-0.7,0.6-1.3,1.3-1.3H487c0.7,0,1.3,0.6,1.3,1.3c0,0,0,0,0,0L488.4,654.4z M488.4,610.1c0,0.7-0.6,1.3-1.3,1.3h-50.3
	c-0.7,0-1.3-0.6-1.3-1.3V593c0-0.7,0.6-1.3,1.3-1.3H487c0.7,0,1.3,0.6,1.3,1.3L488.4,610.1z M488.4,565.8c0,0.7-0.6,1.3-1.3,1.3
	c0,0,0,0,0,0h-50.3c-0.7,0-1.3-0.6-1.3-1.3v-17.1c0-0.7,0.6-1.3,1.3-1.3H487c0.7,0,1.3,0.6,1.3,1.3c0,0,0,0,0,0L488.4,565.8z
	 M488.4,521.4c0,0.7-0.6,1.3-1.3,1.3h-50.3c-0.7,0-1.3-0.6-1.3-1.3v-17.1c0-0.7,0.6-1.3,1.3-1.3H487c0.7,0,1.3,0.6,1.3,1.3
	c0,0,0,0,0,0L488.4,521.4z M488.4,477.1c0,0.7-0.6,1.3-1.3,1.3c0,0,0,0,0,0h-50.3c-0.7,0-1.3-0.6-1.3-1.3V460c0-0.7,0.6-1.3,1.3-1.3
	H487c0.7,0,1.3,0.6,1.3,1.3L488.4,477.1z M488.4,432.8c0,0.7-0.6,1.3-1.3,1.4c0,0,0,0,0,0h-50.3c-0.7,0-1.3-0.6-1.3-1.4v-17.1
	c0-0.7,0.6-1.4,1.3-1.4H487c0.7,0,1.3,0.6,1.3,1.3c0,0,0,0,0,0L488.4,432.8z M569.8,698.8c0,0.7-0.6,1.3-1.3,1.3c0,0,0,0,0,0h-50.2
	c-0.7,0-1.3-0.6-1.3-1.3v-17.1c0-0.7,0.6-1.3,1.3-1.3h50.2c0.7,0,1.3,0.6,1.3,1.3L569.8,698.8z M569.8,654.4c0,0.7-0.6,1.3-1.3,1.3
	c0,0,0,0,0,0h-50.2c-0.7,0-1.3-0.6-1.3-1.3v-17.1c0-0.7,0.6-1.3,1.3-1.3h50.2c0.7,0,1.3,0.6,1.3,1.3c0,0,0,0,0,0L569.8,654.4z
	 M569.8,610.1c0,0.7-0.6,1.3-1.3,1.3h-50.2c-0.7,0-1.3-0.6-1.3-1.3V593c0-0.7,0.6-1.3,1.3-1.3h50.2c0.7,0,1.3,0.6,1.3,1.3
	L569.8,610.1z M569.8,565.8c0,0.7-0.6,1.3-1.3,1.3c0,0,0,0,0,0h-50.2c-0.7,0-1.3-0.6-1.3-1.3v-17.1c0-0.7,0.6-1.3,1.3-1.3h50.2
	c0.7,0,1.3,0.6,1.3,1.3c0,0,0,0,0,0L569.8,565.8z M569.8,521.4c0,0.7-0.6,1.3-1.3,1.3h-50.2c-0.7,0-1.3-0.6-1.3-1.3v-17.1
	c0-0.7,0.6-1.3,1.3-1.3h50.2c0.7,0,1.3,0.6,1.3,1.3c0,0,0,0,0,0L569.8,521.4z M569.8,477.1c0,0.7-0.6,1.3-1.3,1.3c0,0,0,0,0,0h-50.2
	c-0.7,0-1.3-0.6-1.3-1.3V460c0-0.7,0.6-1.3,1.3-1.3h50.2c0.7,0,1.3,0.6,1.3,1.3L569.8,477.1z M569.8,432.8c0,0.7-0.6,1.3-1.3,1.4
	c0,0,0,0,0,0h-50.2c-0.7,0-1.3-0.6-1.3-1.4v-17.1c0-0.7,0.6-1.4,1.3-1.4h50.2c0.7,0,1.3,0.6,1.3,1.3c0,0,0,0,0,0L569.8,432.8z
	 M688.9,698.8c0,0.7-0.6,1.3-1.3,1.3h-50.2c-0.7,0-1.3-0.6-1.3-1.3c0,0,0,0,0,0v-17.1c0-0.7,0.6-1.3,1.3-1.3h50.2
	c0.7,0,1.3,0.6,1.3,1.3L688.9,698.8z M688.9,654.4c0,0.7-0.6,1.3-1.3,1.3h-50.2c-0.7,0-1.3-0.6-1.3-1.3c0,0,0,0,0,0v-17.1
	c0-0.7,0.6-1.3,1.3-1.3c0,0,0,0,0,0h50.2c0.7,0,1.3,0.6,1.3,1.3L688.9,654.4z M688.9,610.1c0,0.7-0.6,1.3-1.3,1.3h-50.2
	c-0.7,0-1.3-0.6-1.3-1.3V593c0-0.7,0.6-1.3,1.3-1.3h50.2c0.7,0,1.3,0.6,1.3,1.3L688.9,610.1z M688.9,565.8c0,0.7-0.6,1.3-1.3,1.3
	h-50.2c-0.7,0-1.3-0.6-1.3-1.3c0,0,0,0,0,0v-17.1c0-0.7,0.6-1.3,1.3-1.3c0,0,0,0,0,0h50.2c0.7,0,1.3,0.6,1.3,1.3L688.9,565.8z
	 M688.9,521.4c0,0.7-0.6,1.3-1.3,1.3h-50.2c-0.7,0-1.3-0.6-1.3-1.3v-17.1c0-0.7,0.6-1.3,1.3-1.3c0,0,0,0,0,0h50.2
	c0.7,0,1.3,0.6,1.3,1.3L688.9,521.4z M688.9,477.1c0,0.7-0.6,1.3-1.3,1.3h-50.2c-0.7,0-1.3-0.6-1.3-1.3c0,0,0,0,0,0V460
	c0-0.7,0.6-1.3,1.3-1.3h50.2c0.7,0,1.3,0.6,1.3,1.3L688.9,477.1z M688.9,432.8c0,0.7-0.6,1.4-1.3,1.4h-50.2c-0.7,0-1.3-0.6-1.3-1.3
	c0,0,0,0,0,0v-17.1c0-0.7,0.6-1.3,1.3-1.4c0,0,0,0,0,0h50.2c0.7,0,1.3,0.6,1.3,1.4L688.9,432.8z"/>
<g class="st1">
	<path class="st2" d="M89.9,644.6c0,4.3-1.1,8.6-3.2,12.4c4.3,7.7,4.3,17.1,0,24.8c1.1,1.9,1.9,3.9,2.4,6
		c-10.9-14.4-21-29.4-30.1-45l0,0c0.2-3.7,1.3-7.3,3.2-10.6c-2.1-3.7-3.3-8-3.2-12.3c0-2.9,0.5-5.8,1.5-8.6c0.5-1.3,1.1-2.6,1.8-3.8
		c2.8-4.8,7.3-7.9,12.2-7.9s9.4,3.1,12.3,7.9c0.7,1.2,1.3,2.4,1.7,3.7c1,2.8,1.5,5.8,1.5,8.7c0,4.3-1.1,8.6-3.2,12.4
		C88.8,636,90,640.3,89.9,644.6z"/>
	<ellipse class="st2" cx="74.4" cy="595.1" rx="15.5" ry="20.3"/>
	<ellipse class="st2" cx="74.4" cy="570.3" rx="15.5" ry="20.3"/>
	<path class="st3" d="M148.3,446.7c0,16.6-5.6,32.8-15.9,45.8c25.3,32.2,19.7,78.8-12.4,104.1c-9.2,7.3-20,12.2-31.6,14.5
		c-1.8,0.4-3.6,0.6-5.4,0.9c-5.6,0.7-11.3,0.7-17,0.1c-1.9-0.2-3.7-0.5-5.6-0.8c-8.1-1.5-15.9-4.3-23-8.4
		C24,575.6,12.4,547.6,2.5,519c2.6-9.6,7.1-18.6,13.3-26.5c-15.5-19.7-20-45.9-11.9-69.6l56.3,18.9L7.3,414.4
		c2.4-4.8,5.2-9.3,8.5-13.5c-25.3-32.2-19.8-78.8,12.4-104.1c32.2-25.3,78.8-19.8,104.1,12.4c2.2,2.8,4.2,5.7,5.9,8.7l-54.4,40
		l59-30.6c7.6,18.9,7.1,40.2-1.4,58.7l-44-0.3l40.7,6.7c-1.7,3-3.7,5.8-5.8,8.5C142.7,413.9,148.3,430.1,148.3,446.7z"/>
	<path class="st4" d="M148.3,538.4c0,35.4-25.1,65.9-59.8,72.7c-1.8,0.4-3.6,0.6-5.4,0.9c-5.6,0.7-11.3,0.7-17,0.1
		c-1.9-0.2-3.7-0.5-5.6-0.8c-8.1-1.5-15.9-4.3-23-8.4c-13.3-27.2-25-55.2-34.9-83.8c2.6-9.6,7.1-18.6,13.3-26.5
		C5.5,479.5-0.1,463.3,0,446.7c0-8.3,142.3,33.2,132.4,45.8C142.7,505.6,148.3,521.7,148.3,538.4z"/>
</g>
<g class="st1">
	<path class="st2" d="M982.5,625.3c-2.9,9.3-6,18.5-9.2,27.4c-0.9-2.6-1.3-5.4-1.3-8.2C972,635.6,976.4,628,982.5,625.3z"/>
	<path class="st3" d="M1013.6,465.8c0,17.6-3.5,45.3-10,77c-5.7,27.9-12.7,55.4-21.2,82.6c-2.9,9.3-6,18.5-9.2,27.4
		c-3.7,10.2-7.5,20.1-11.5,29.6c-38.6-14.2-58.4-56.9-44.2-95.5c2.7-7.3,6.5-14.2,11.3-20.3c-15.5-19.7-20-46-12-69.8l56.3,18.9
		l-52.8-27.5c2.3-4.8,5.2-9.3,8.5-13.5c-25.4-32.3-19.7-79.1,12.6-104.4c5.1-4,10.6-7.3,16.5-9.8c22.7,15.5,39.8,37.9,48.8,63.9
		l-9.8,7.3l10.5-5.4c3.5,10.8,5.6,22,6.1,33.3h-2.9l3,0.5C1013.5,461.9,1013.6,463.9,1013.6,465.8z"/>
	<path class="st4" d="M1003.6,542.8c-5.7,27.9-12.7,55.4-21.2,82.6c-2.9,9.3-6,18.5-9.2,27.4c-3.7,10.2-7.5,20.1-11.5,29.6
		c-38.6-14.2-58.4-56.9-44.2-95.5c2.7-7.3,6.5-14.2,11.3-20.3c-10.3-13.1-15.9-29.3-15.9-45.9C913,515.6,964.7,528.8,1003.6,542.8z"
		/>
</g>
<path class="st0" d="M323.5,123.2c-5.6-1.1-11.5-0.4-16.7,1.8c-6.4,2.9-13.7,2.9-20.1,0c-7.6-3.3-16.2-3.2-23.7,0.5
	c-2.1,1.1-4.4,1.7-6.8,1.7c-9.6,0-17.6-9.7-19.3-22.4c1.9-1.4,3.5-3.2,4.8-5.2c5.6-9.1,14.4-14.9,24.1-14.9s18.4,5.8,24,14.7
	c3.4,5.5,9.5,8.8,16,8.7h0.3C313.7,108.1,320.3,114.3,323.5,123.2z"/>
<path class="st0" d="M352.8,83.1L337.3,93l9.4-17.1c-2.7-2.1-6-3.3-9.4-3.4H337c-1.1,0-2.2-0.1-3.2-0.2l-5.3,3.3l2.3-4.1
	c-3.7-1.3-7-3.8-9.2-7l-9.4,6l6-10.8c-5.5-6.6-12.9-10.7-21.1-10.7c-9.8,0-18.5,5.8-24.1,14.9c-3.4,5.5-9.5,8.8-16,8.6h-0.5
	c-10.8,0-19.6,12.3-19.6,27.4s8.8,27.4,19.6,27.4c2.4,0,4.7-0.6,6.8-1.7c7.4-3.6,16.1-3.8,23.7-0.5c6.4,2.9,13.7,2.9,20.1,0.1
	c7.5-3.3,16.1-3.1,23.5,0.4c2.1,1.1,4.4,1.7,6.7,1.7c10.8,0,19.6-12.3,19.6-27.4C356.9,94.1,355.5,88.3,352.8,83.1z"/>
<path class="st0" d="M768.5,286.7c-4-0.8-8-0.3-11.7,1.3c-4.5,2-9.6,2-14.1,0c-5.3-2.3-11.4-2.2-16.6,0.3c-1.5,0.8-3.1,1.2-4.8,1.2
	c-6.7,0-12.3-6.8-13.5-15.7c1.3-1,2.5-2.2,3.4-3.6c3.9-6.4,10-10.4,16.9-10.4s12.9,4,16.8,10.3c2.4,3.9,6.6,6.2,11.2,6.1h0.2
	C761.6,276.1,766.3,280.4,768.5,286.7z"/>
<path class="st0" d="M789,258.6l-10.9,6.9l6.6-12c-1.9-1.5-4.2-2.3-6.6-2.4H778c-0.8,0-1.5,0-2.3-0.2l-3.7,2.3l1.6-2.9
	c-2.6-0.9-4.9-2.6-6.4-4.9l-6.6,4.2l4.2-7.6c-3.8-4.6-9-7.5-14.8-7.5c-6.8,0-13,4.1-16.9,10.4c-2.4,3.9-6.6,6.1-11.2,6h-0.4
	c-7.6,0-13.7,8.6-13.7,19.2s6.1,19.2,13.7,19.2c1.7,0,3.3-0.4,4.8-1.2c5.2-2.5,11.3-2.6,16.6-0.3c2.2,1,4.6,1.5,7.1,1.5
	c2.4,0,4.8-0.5,7-1.5c5.3-2.3,11.3-2.2,16.4,0.3c1.5,0.8,3.1,1.2,4.7,1.2c7.6,0,13.7-8.6,13.7-19.2
	C791.9,266.2,790.9,262.2,789,258.6z"/>
<path class="st0" d="M191.2,241.7c4-0.7,8-0.3,11.7,1.3c4.5,2,9.6,2,14.1,0c5.3-2.3,11.4-2.2,16.6,0.3c1.5,0.8,3.1,1.2,4.8,1.2
	c6.7,0,12.3-6.8,13.5-15.7c-1.3-1-2.5-2.2-3.4-3.6c-3.9-6.4-10-10.4-16.9-10.4s-12.9,4-16.8,10.3c-2.4,3.9-6.6,6.2-11.2,6.1h-0.2
	C198.1,231.1,193.5,235.4,191.2,241.7z"/>
<path class="st0" d="M170.7,213.6l10.9,6.9l-6.6-12c1.9-1.5,4.2-2.3,6.6-2.4h0.2c0.8,0,1.5,0,2.3-0.2l3.7,2.3l-1.6-2.9
	c2.6-0.9,4.9-2.6,6.5-4.9l6.6,4.2l-4.2-7.6c3.9-4.6,9-7.5,14.8-7.5c6.9,0,13,4.1,16.9,10.4c2.4,3.9,6.6,6.1,11.2,6h0.4
	c7.6,0,13.7,8.6,13.7,19.2s-6.1,19.2-13.7,19.2c-1.7,0-3.3-0.4-4.8-1.2c-5.2-2.5-11.3-2.6-16.6-0.3c-2.2,1-4.6,1.5-7.1,1.5
	c-2.4,0-4.8-0.5-7-1.5c-5.3-2.3-11.3-2.2-16.4,0.3c-1.5,0.8-3.1,1.2-4.7,1.2c-7.6,0-13.7-8.6-13.7-19.2
	C167.9,221.3,168.8,217.2,170.7,213.6z"/>
<path class="st0" d="M620.4,164.6c5.1-1,10.3-0.4,15,1.6c5.7,2.6,12.3,2.6,18,0c6.8-3,14.5-2.8,21.2,0.4c1.9,1,4,1.5,6.1,1.5
	c8.6,0,15.8-8.7,17.2-20.1c-1.7-1.2-3.2-2.8-4.3-4.6c-5-8.1-12.8-13.3-21.6-13.3s-16.5,5.1-21.5,13.2c-3.1,4.9-8.5,7.9-14.3,7.9
	h-0.2C629.2,151.1,623.3,156.6,620.4,164.6z"/>
<path class="st0" d="M594.2,128.7l13.9,8.8l-8.4-15.3c2.4-1.9,5.3-3,8.4-3h0.3c1,0,1.9,0,2.9-0.2l4.7,3l-2-3.7
	c3.3-1.2,6.2-3.4,8.2-6.3l8.4,5.3l-5.3-9.7c4.9-5.9,11.6-9.5,18.9-9.5c8.8,0,16.6,5.2,21.6,13.3c3,4.9,8.5,7.9,14.3,7.7h0.5
	c9.7,0,17.5,11,17.5,24.5c0,13.5-7.8,24.5-17.5,24.5c-2.1,0-4.2-0.5-6.1-1.5c-6.7-3.2-14.4-3.4-21.2-0.4c-2.8,1.3-5.9,1.9-9.1,1.9
	c-3.1,0-6.1-0.7-9-1.9c-6.7-2.9-14.4-2.8-21,0.4c-1.9,1-3.9,1.5-6,1.5c-9.7,0-17.5-11-17.5-24.5
	C590.6,138.4,591.8,133.3,594.2,128.7z"/>
<path class="st5" d="M254.8,402l219.4,106c5.7,2.7,13.4,4.2,20.9,4.2s15.2-1.4,20.9-4.2l219.4-106c11.5-5.6,11.5-14.7,0-20.2
	l-219.4-106c-5.7-2.7-13.4-4.1-20.9-4.1s-15.2,1.4-20.9,4.1l-219.4,106C243.2,387.3,243.2,396.4,254.8,402z"/>
<path class="st5" d="M734.9,510.5c0,0-40.1-19.3-45.4-21.9s-6.7-2.5-12.3,0.1s-161.8,78.1-161.8,78.1c-5.8,2.7-13.4,4.2-20.9,4.2
	s-15.2-1.4-20.9-4.2c0,0-152.1-73.4-159.3-76.9c-7.8-3.8-10-3.8-17-0.4L254,510.5c-11.5,5.6-11.5,14.7,0,20.2l219.4,106
	c5.7,2.7,13.4,4.2,20.9,4.2s15.2-1.4,20.9-4.2l219.4-106C746.5,525.2,746.5,516.2,734.9,510.5L734.9,510.5z"/>
<path class="st5" d="M734.9,639.3c0,0-40.1-19.3-45.4-21.9s-6.7-2.5-12.3,0.1s-161.7,78.2-161.7,78.2c-5.8,2.7-13.4,4.2-20.9,4.2
	s-15.2-1.4-20.9-4.2c0,0-152.1-73.4-159.3-76.9c-7.8-3.8-10-3.8-17-0.4l-43.3,20.9c-11.5,5.6-11.5,14.7,0,20.2l219.4,106
	c5.7,2.8,13.4,4.2,20.9,4.2s15.2-1.4,20.9-4.2l219.4-106C746.5,654,746.5,644.9,734.9,639.3z"/>
<path class="st6" d="M784.2,51.7c-1.7,0.8-3.5,1.3-5.4,1.5c2-1.2,3.4-3,4.2-5.2c-1.9,1.1-3.9,1.9-6,2.3c-3.6-3.8-9.5-4-13.3-0.5
	c-1.9,1.8-3,4.3-3,6.9c0,0.7,0.1,1.5,0.2,2.2c-7.6-0.4-14.7-4-19.5-9.9c-2.5,4.3-1.2,9.8,2.9,12.6c-1.5,0-3-0.4-4.3-1.2v0.1
	c0,4.5,3.2,8.4,7.6,9.3c-0.8,0.2-1.6,0.3-2.5,0.3c-0.6,0-1.2-0.1-1.8-0.2c1.2,3.8,4.8,6.5,8.8,6.6c-3.3,2.6-7.5,4-11.7,4
	c-0.8,0-1.5,0-2.3-0.1c4.3,2.8,9.3,4.3,14.4,4.3c17.4,0,26.9-14.4,26.9-26.9c0-0.4,0-0.8,0-1.2C781.3,55.3,782.9,53.6,784.2,51.7z"
	/>
<path class="st7" d="M493,126.9h-33.3c-1.1,0-2.1,0.9-2.1,2.1l0,0v33.3c0,1.1,0.9,2.1,2.1,2.1l0,0h16.6v-14.8h-4.5V144h4.5v-4
	c0-4.8,3.4-7.5,7.7-7.5c2.1,0,4.3,0.2,4.8,0.2v5h-3.4c-2.3,0-2.8,1.1-2.8,2.8v3.5h5.6l-0.7,5.5h-4.9v14.8H493c1.1,0,2.1-0.9,2.1-2.1
	V129C495.1,127.8,494.2,126.9,493,126.9z"/>
<path class="st8" d="M212,130c4.3,0,7.8,3.5,7.8,7.8v15.6c0,2.1-0.8,4-2.3,5.5c-1.5,1.5-3.4,2.3-5.5,2.3h-15.6
	c-4.3,0-7.8-3.5-7.8-7.8v-15.6c0-4.3,3.5-7.8,7.8-7.8H212 M212,126.9h-15.6c-6,0-10.9,4.9-10.9,10.9v15.6c0,6,4.9,10.9,10.9,10.9
	H212c6,0,10.9-4.9,10.9-10.9v-15.6C222.9,131.8,218,126.9,212,126.9L212,126.9z"/>
<path class="st8" d="M214.3,137.8c-1.3,0-2.3-1-2.3-2.3s1-2.3,2.3-2.3c1.3,0,2.3,1,2.3,2.3l0,0C216.7,136.8,215.6,137.8,214.3,137.8
	C214.3,137.8,214.3,137.8,214.3,137.8z M204.2,139.4c3.4,0,6.2,2.8,6.2,6.2c0,3.4-2.8,6.2-6.2,6.2s-6.2-2.8-6.2-6.2c0,0,0,0,0,0
	C198,142.2,200.7,139.4,204.2,139.4 M204.2,136.3c-5.2,0-9.4,4.2-9.4,9.4c0,5.2,4.2,9.4,9.4,9.4c5.2,0,9.4-4.2,9.4-9.4c0,0,0,0,0,0
	C213.5,140.4,209.4,136.3,204.2,136.3C204.2,136.3,204.2,136.3,204.2,136.3z"/>
<path class="st9" d="M647.6,222.9h-31.2c-1.7-0.1-3.1,1.2-3.2,2.9c0,0,0,0,0,0v31.3c0,1.7,1.5,3.2,3.2,3.2h31.2c1.7-0.1,3-1.5,3-3.2
	v-31.3c0-1.6-1.2-2.9-2.8-2.9C647.7,222.9,647.7,222.9,647.6,222.9z M624.8,254.1h-5.4v-16.7h5.4V254.1z M622.3,234.9L622.3,234.9
	c-1.6,0-2.9-1.3-2.8-2.9c0-1.6,1.3-2.9,2.9-2.8c1.6,0,2.8,1.3,2.8,2.9c0.1,1.5-1.1,2.8-2.6,2.9C622.5,234.9,622.4,234.9,622.3,234.9
	L622.3,234.9z M644.4,254.1H639V245c0-2.2-0.8-3.7-2.7-3.7c-1.2,0-2.3,0.8-2.7,2c-0.1,0.4-0.2,0.9-0.2,1.3v9.5H628v-16.7h5.4v2.3
	c1-1.7,2.9-2.8,4.8-2.7c3.5,0,6.2,2.3,6.2,7.3L644.4,254.1z"/>
<g>
	<polygon class="st10" points="541.8,390.6 512.1,406.8 496.8,398.6 526.4,382.5 	"/>
	<g>
		<polygon class="st10" points="536.9,346.2 429.5,404.7 387.3,382.3 494.7,323.7 		"/>
	</g>
	<g>
		<g>
			<g>
				<path class="st11" d="M429.5,404.7c15,8,37.9,9.4,50.7,2.4l61.7-33.7c12.8-7,9.9-19.3-5.1-27.3"/>
				<path class="st11" d="M494.7,323.7c-15-8-37.9-9.4-50.7-2.4L382.2,355c-12.8,7-9.9,19.3,5.1,27.3"/>
				<path class="st11" d="M387.3,382.3c-10,5.4-8.6,14.9,3,21.1c11.7,6.2,29.2,6.8,39.2,1.4"/>
				<path class="st11" d="M536.9,346.2c10-5.4,8.6-14.9-3-21.1c-11.7-6.2-29.2-6.8-39.2-1.4"/>
			</g>
			<g>
				<path class="st10" d="M458.7,403.6c-6.9,0-13.9-1.6-19.2-4.4l-42.9-22.8c-5.2-2.8-8.2-6.4-8.2-9.9c0-2.9,2-5.5,5.5-7.5
					l56.6-30.9c3.8-2.1,9.1-3.2,14.9-3.2c6.9,0,13.9,1.6,19.2,4.4l42.9,22.8c5.2,2.8,8.2,6.4,8.2,9.9c0,2.9-2,5.5-5.5,7.5
					l-56.6,30.9C469.8,402.4,464.5,403.6,458.7,403.6z"/>
				<path d="M465.5,324.1v1.5c6.8,0,13.7,1.6,18.8,4.3l42.9,22.8c5,2.6,7.8,6,7.8,9.3c0,2.6-1.8,5-5.2,6.8l-56.6,30.9
					c-3.7,2-8.9,3.1-14.5,3.1c-6.8,0-13.7-1.6-18.8-4.3L397,375.7c-5-2.6-7.8-6-7.8-9.3c0-2.6,1.8-5,5.2-6.8l56.6-30.9
					c3.7-2,8.9-3.1,14.5-3.1L465.5,324.1 M465.5,324.1c-5.7,0-11.2,1.1-15.2,3.3l-56.6,30.9c-8.9,4.8-7.7,13.2,2.7,18.7l42.9,22.8
					c5.6,3,12.7,4.5,19.5,4.5c5.7,0,11.2-1.1,15.2-3.3l56.6-30.9c8.9-4.8,7.7-13.2-2.7-18.7L485,328.6
					C479.4,325.7,472.2,324.1,465.5,324.1L465.5,324.1z"/>
			</g>
			<path class="st12" d="M614.1,392.2L516,445.7l-23.1-12.3c-8.3-4.4-9.3-11.1-2.2-15l72.3-39.5c7.1-3.9,19.6-3.5,27.9,1
				L614.1,392.2z"/>
			<line class="st13" x1="512.1" y1="406.8" x2="496.8" y2="398.6"/>
			<line class="st13" x1="526.4" y1="382.5" x2="541.8" y2="390.6"/>
			<path class="st12" d="M495.5,371.9l-18.8,10.2c-2.4,1.3-6,1.2-8.8-0.3c-2.8-1.5-3.1-3.4-0.7-4.7l18.8-10.2
				c2.5-1.4,6.9-0.7,8.8,0.3C497.7,368.7,497.9,370.6,495.5,371.9z"/>
			<g>
				
					<ellipse transform="matrix(0.1046 -0.9945 0.9945 0.1046 82.4942 782.614)" class="st14" cx="475.9" cy="345.5" rx="9" ry="17"/>
				
					<ellipse transform="matrix(0.1046 -0.9945 0.9945 0.1046 82.4942 782.614)" class="st12" cx="475.9" cy="345.5" rx="3.3" ry="6.3"/>
			</g>
			<g>
				<path class="st14" d="M440.3,378.7c-5.9,3.2-17,2.8-23.9-0.8c-6.8-3.6-7.7-9.6-1.8-12.8c5.9-3.2,17-2.8,23.9,0.8
					C445.3,369.5,446.2,375.5,440.3,378.7z"/>
				
					<ellipse transform="matrix(0.1046 -0.9945 0.9945 0.1046 12.9129 758.1329)" class="st12" cx="427.5" cy="371.9" rx="3.3" ry="6.3"/>
			</g>
			<path class="st12" d="M422.5,399.8c-6.1,3.3-16.9,3-24-0.8s-8-9.6-1.9-12.9L422.5,399.8z"/>
			<path class="st12" d="M501.7,328.7c6.1-3.3,16.9-3,24,0.8c7.1,3.8,8,9.6,1.9,12.9L501.7,328.7z"/>
		</g>
	</g>
</g>
</svg>
