<svg xmlns="http://www.w3.org/2000/svg" width="79.268" height="116.392" viewBox="0 0 79.268 116.392">
  <g id="Group_9" data-name="Group 9" transform="translate(-692.848 -59.455)">
    <g id="Group_7" data-name="Group 7" transform="translate(692.848 97.108)">
      <path id="f" d="M719.389,198.637V162.723h12.05l1.808-14H719.389v-8.937c0-4.053,1.121-6.814,6.938-6.814l7.408,0V120.446a100.537,100.537,0,0,0-10.8-.548c-10.687,0-18,6.524-18,18.5v10.324H692.848v14h12.087v35.914Z" transform="translate(-692.848 -119.898)" fill="#4384f1"/>
    </g>
    <g id="Group_8" data-name="Group 8" transform="translate(720.034 62.955)">
      <path id="Path_17" data-name="Path 17" d="M738.176,83.955a35.986,35.986,0,0,1,35.986,35.986" transform="translate(-738.176 -71.36)" fill="none" stroke="#4384f1" stroke-miterlimit="10" stroke-width="7"/>
      <path id="Path_18" data-name="Path 18" d="M738.176,62.955a48.582,48.582,0,0,1,48.581,48.581" transform="translate(-738.176 -62.955)" fill="none" stroke="#4384f1" stroke-miterlimit="10" stroke-width="7"/>
    </g>
  </g>
</svg>
