<?xml version="1.0" encoding="utf-8"?>
<!-- Generator: Adobe Illustrator 22.0.1, SVG Export Plug-In . SVG Version: 6.00 Build 0)  -->
<svg version="1.1" id="b07e7c8b-ffb9-458f-9d0a-e368c1cfe139"
	 xmlns="http://www.w3.org/2000/svg" xmlns:xlink="http://www.w3.org/1999/xlink" x="0px" y="0px" viewBox="0 0 1020 612"
	 style="enable-background:new 0 0 1020 612;" xml:space="preserve">
<style type="text/css">
	.st0{fill:#F5F7FA;}
	.st1{fill:#4384F1;}
	.st2{fill:#FFFFFF;}
	.st3{fill:none;stroke:#FFFFFF;stroke-width:1.0959;stroke-miterlimit:10;}
	.st4{fill:none;stroke:#4384F1;stroke-width:1.0959;stroke-miterlimit:10;}
	.st5{fill:#D8DADD;}
	.st6{fill:#F2F2F2;}
	.st7{fill:#3F3D56;}
	.st8{fill:#2F2E41;}
	.st9{fill:#FFB8B8;}
	.st10{opacity:0.1;enable-background:new    ;}
	.st11{opacity:0.2;enable-background:new    ;}
</style>
<title>online_organizer</title>
<g>
	<g>
		
			<image style="overflow:visible;opacity:0.25;" width="830" height="442" xlink:href="D6589440.png"  transform="matrix(1 0 0 1 210.0538 38.9921)">
		</image>
		<g>
			<g>
				<path class="st0" d="M224.9,88.9v359.7c0,8,6.5,14.5,14.5,14.5h766.1c8,0,14.5-6.5,14.5-14.5V70.8c0-8-6.5-14.5-14.5-14.5h-748
					C239.5,56.3,224.9,70.9,224.9,88.9z M251,179.4c-7.1,0-7.1-11,0-11C258.1,168.5,258.1,179.4,251,179.4z"/>
			</g>
		</g>
	</g>
	<g>
		
			<image style="overflow:visible;opacity:0.15;" width="73" height="387" xlink:href="D6589441.png"  transform="matrix(1 0 0 1 208.4229 96.3613)">
		</image>
		<g>
			<path class="st1" d="M258.9,463.2h-15.5c-10.2,0-18.5-8.3-18.5-18.5V115.5h34V463.2z"/>
		</g>
	</g>
	<g>
		
			<image style="overflow:visible;opacity:0.15;" width="153" height="150" xlink:href="D6589447.png"  transform="matrix(1 0 0 1 265.7423 148.6806)">
		</image>
		<g>
			<path class="st2" d="M396.1,288H281.7c-4.7,0-8.6-3.8-8.6-8.6V168.1c0-4.7,3.8-8.6,8.6-8.6h114.3c4.7,0,8.6,3.8,8.6,8.6v111.3
				C404.7,284.1,400.8,288,396.1,288z"/>
			<path class="st3" d="M396.1,288H281.7c-4.7,0-8.6-3.8-8.6-8.6V168.1c0-4.7,3.8-8.6,8.6-8.6h114.3c4.7,0,8.6,3.8,8.6,8.6v111.3
				C404.7,284.1,400.8,288,396.1,288z"/>
		</g>
	</g>
	<path class="st1" d="M347.5,138.5h-72c-1.3,0-2.4-1.1-2.4-2.4v-12c0-1.3,1.1-2.4,2.4-2.4h72c1.3,0,2.4,1.1,2.4,2.4v12
		C349.9,137.4,348.8,138.5,347.5,138.5z"/>
	<path class="st4" d="M919.4,107.3H289.9c-4.4,0-8-3.6-8-8v-6.6c0-4.4,3.6-8,8-8h629.5c4.4,0,8,3.6,8,8v6.6
		C927.4,103.7,923.8,107.3,919.4,107.3z"/>
	<g>
		
			<image style="overflow:visible;opacity:0.15;" width="187" height="111" xlink:href="D6589442.png"  transform="matrix(1 0 0 1 266.7423 289.6806)">
		</image>
		<g>
			<path class="st2" d="M432.1,390H281.3c-4.5,0-8.1-3.6-8.1-8.1v-74.4c0-4.5,3.6-8.1,8.1-8.1h150.8c4.5,0,8.1,3.6,8.1,8.1v74.4
				C440.3,386.4,436.6,390,432.1,390z"/>
		</g>
	</g>
	<g>
		
			<image style="overflow:visible;opacity:0.15;" width="745" height="81" xlink:href="D6589443.png"  transform="matrix(1 0 0 1 266.7423 392.6806)">
		</image>
		<g>
			<path class="st2" d="M998.6,463.2H273.1V416c0-7.7,6.2-13.9,13.9-13.9h697.6c7.7,0,13.9,6.2,13.9,13.9V463.2z"/>
		</g>
	</g>
	<g>
		
			<image style="overflow:visible;opacity:0.15;" width="187" height="111" xlink:href="D658944E.png"  transform="matrix(1 0 0 1 638.7422 289.6806)">
		</image>
		<g>
			<path class="st2" d="M804.4,390H653.5c-4.5,0-8.1-3.6-8.1-8.1v-74.4c0-4.5,3.6-8.1,8.1-8.1h150.8c4.5,0,8.1,3.6,8.1,8.1v74.4
				C812.5,386.4,808.9,390,804.4,390z"/>
		</g>
	</g>
	<g>
		
			<image style="overflow:visible;opacity:0.15;" width="187" height="111" xlink:href="D658944F.png"  transform="matrix(1 0 0 1 452.7423 289.6806)">
		</image>
		<g>
			<path class="st2" d="M618.2,390H467.4c-4.5,0-8.1-3.6-8.1-8.1v-74.4c0-4.5,3.6-8.1,8.1-8.1h150.8c4.5,0,8.1,3.6,8.1,8.1v74.4
				C626.4,386.4,622.7,390,618.2,390z"/>
		</g>
	</g>
	<g>
		
			<image style="overflow:visible;opacity:0.15;" width="187" height="110" xlink:href="D6589444.png"  transform="matrix(1 0 0 1 824.7422 290.6806)">
		</image>
		<g>
			<path class="st2" d="M990.5,390.7H839.6c-4.5,0-8.1-3.6-8.1-8.1v-74.4c0-4.5,3.6-8.1,8.1-8.1h150.8c4.5,0,8.1,3.6,8.1,8.1v74.4
				C998.6,387.1,995,390.7,990.5,390.7z"/>
		</g>
	</g>
	<g>
		
			<image style="overflow:visible;opacity:0.15;" width="152" height="148" xlink:href="D6589445.png"  transform="matrix(1 0 0 1 414.7423 149.6806)">
		</image>
		<g>
			<path class="st2" d="M544.6,288H430.2c-4.7,0-8.6-3.8-8.6-8.6V168.1c0-4.7,3.8-8.6,8.6-8.6h114.3c4.7,0,8.6,3.8,8.6,8.6v111.3
				C553.1,284.1,549.3,288,544.6,288z"/>
		</g>
	</g>
	<g>
		
			<image style="overflow:visible;opacity:0.15;" width="151" height="148" xlink:href="FACD6D9F.png"  transform="matrix(1 0 0 1 563.7422 149.6806)">
		</image>
		<g>
			<path class="st2" d="M693,288H578.7c-4.7,0-8.6-3.8-8.6-8.6V168.1c0-4.7,3.8-8.6,8.6-8.6H693c4.7,0,8.6,3.8,8.6,8.6v111.3
				C701.6,284.1,697.8,288,693,288z"/>
		</g>
	</g>
	<g>
		
			<image style="overflow:visible;opacity:0.15;" width="152" height="148" xlink:href="FACD6D9D.png"  transform="matrix(1 0 0 1 711.7422 149.6806)">
		</image>
		<g>
			<path class="st2" d="M841.5,288H727.2c-4.7,0-8.6-3.8-8.6-8.6V168.1c0-4.7,3.8-8.6,8.6-8.6h114.3c4.7,0,8.6,3.8,8.6,8.6v111.3
				C850.1,284.1,846.3,288,841.5,288z"/>
		</g>
	</g>
	<g>
		
			<image style="overflow:visible;opacity:0.15;" width="151" height="148" xlink:href="FACD6D9B.png"  transform="matrix(1 0 0 1 860.7422 149.6806)">
		</image>
		<g>
			<path class="st2" d="M990,288H875.7c-4.7,0-8.6-3.8-8.6-8.6V168.1c0-4.7,3.8-8.6,8.6-8.6H990c4.7,0,8.6,3.8,8.6,8.6v111.3
				C998.6,284.1,994.8,288,990,288z"/>
		</g>
	</g>
	<g>
		
			<image style="overflow:visible;opacity:0.15;" width="73" height="98" xlink:href="FACD6D95.png"  transform="matrix(1 0 0 1 208.4229 37.3613)">
		</image>
		<g>
			<path class="st0" d="M258.9,56.3h-21.6c-6.9,0-12.4,5.6-12.4,12.4v46.8h34V56.3z"/>
		</g>
	</g>
	<circle class="st4" cx="241.9" cy="85.9" r="15.3"/>
	<rect x="305.8" y="256.8" class="st1" width="65.8" height="5.8"/>
	<rect x="305.8" y="168.5" class="st1" width="65.8" height="11"/>
	<rect x="301.4" y="269.2" class="st5" width="74.7" height="5.8"/>
	<rect x="323.4" y="329.4" class="st1" width="65.8" height="5.8"/>
	<rect x="323.4" y="341.9" class="st5" width="74.7" height="5.8"/>
	<rect x="532.8" y="329.4" class="st1" width="65.8" height="5.8"/>
	<rect x="532.8" y="341.9" class="st5" width="74.7" height="5.8"/>
	<rect x="709.7" y="329.4" class="st1" width="65.8" height="5.8"/>
	<rect x="709.7" y="341.9" class="st5" width="74.7" height="5.8"/>
	<rect x="862.6" y="329.4" class="st1" width="65.8" height="5.8"/>
	<rect x="862.6" y="341.9" class="st5" width="74.7" height="5.8"/>
	<rect x="454.5" y="256.8" class="st1" width="65.8" height="5.8"/>
	<rect x="454.5" y="168.5" class="st1" width="65.8" height="11"/>
	<rect x="450" y="269.2" class="st5" width="74.7" height="5.8"/>
	<rect x="603" y="256.8" class="st1" width="65.8" height="5.8"/>
	<rect x="603" y="168.5" class="st1" width="65.8" height="11"/>
	<rect x="598.5" y="269.2" class="st5" width="74.7" height="5.8"/>
	<rect x="751.5" y="256.8" class="st1" width="65.8" height="5.8"/>
	<rect x="751.5" y="168.5" class="st1" width="65.8" height="11"/>
	<rect x="747" y="269.2" class="st5" width="74.7" height="5.8"/>
	<rect x="900" y="256.8" class="st1" width="65.8" height="5.8"/>
	<rect x="900" y="168.5" class="st1" width="65.8" height="11"/>
	<rect x="895.5" y="269.2" class="st5" width="74.7" height="5.8"/>
	<g>
		
			<image style="overflow:visible;opacity:0.15;" width="43" height="43" xlink:href="FACD6D97.png"  transform="matrix(1 0 0 1 976.7422 98.6806)">
		</image>
		<g>
			<circle class="st2" cx="995.3" cy="119.9" r="11.5"/>
		</g>
	</g>
</g>
<g>
	
		<image style="overflow:visible;opacity:0.2;" width="706" height="455" xlink:href="FACD6D8A.png"  transform="matrix(1 0 0 1 -2.899 139.0394)">
	</image>
	<g>
		<g>
			<path class="st6" d="M79.7,582.6l-22.4-62.8c0,0,24.6,12.4,25.8,28c0,0-5.6-78.5-16.8-95.3c0,0,17.9,2.2,38.1,89.7
				c0,0,3.4-100.9-26.9-130.1c0,0,41.5,33.6,44.9,106.5v63.9L79.7,582.6z"/>
			<path class="st6" d="M501.2,582.6l-5.4-15.1c0,0,5.9,3,6.2,6.8c0,0-1.4-18.9-4.1-22.9c0,0,4.3,0.5,9.1,21.6
				c0,0,0.8-24.3-6.4-31.2c0,0,10,8.1,10.7,25.6v15.4L501.2,582.6z"/>
			<path class="st7" d="M441.5,583c-0.2-0.3-3.8-6.4-5.1-19.1c-1.2-11.7-0.4-31.4,9.8-58.9c19.4-52.1-4.5-94.2-4.7-94.6l1.2-0.7
				c0.1,0.1,6.2,10.8,9.8,27.9c4.8,22.6,3,46.1-5.1,67.9c-19.4,52-5,76.7-4.8,76.9L441.5,583z"/>
			<circle class="st1" cx="433.9" cy="398.4" r="8.8"/>
			<circle class="st7" cx="461.8" cy="431" r="8.8"/>
			<circle class="st1" cx="442.8" cy="452.8" r="8.8"/>
			<circle class="st1" cx="465.9" cy="471.2" r="8.8"/>
			<circle class="st7" cx="435.9" cy="499.7" r="8.8"/>
			<path class="st7" d="M446.9,583.3c0,0-8.8-21.8,17.7-38.1L446.9,583.3z"/>
			<path class="st7" d="M436,582.9c0,0-4.1-23.1-35.1-22.9L436,582.9z"/>
			<rect x="159.4" y="340.7" class="st7" width="232.5" height="242"/>
			<rect x="177" y="372.2" class="st2" width="42.1" height="29.9"/>
			<rect x="257.9" y="372.2" class="st2" width="116.2" height="3.4"/>
			<rect x="257.9" y="385.8" class="st2" width="116.2" height="3.4"/>
			<rect x="257.9" y="399.4" class="st2" width="116.2" height="3.4"/>
			<rect x="177" y="480" class="st2" width="42.1" height="29.9"/>
			<rect x="257.9" y="480" class="st2" width="116.2" height="3.4"/>
			<rect x="257.9" y="493.6" class="st2" width="116.2" height="3.4"/>
			<rect x="257.9" y="507.1" class="st2" width="116.2" height="3.4"/>
			<polygon class="st1" points="198.3,394.7 183.8,375.5 187.2,373 199,388.6 228.9,364.4 231.6,367.7 			"/>
			<polygon class="st1" points="198.3,501.5 183.8,482.2 187.2,479.7 199,495.4 228.9,471.1 231.6,474.4 			"/>
			<polygon class="st7" points="39.8,581.9 689.5,581.9 689.5,583.3 4.7,583.3 			"/>
			<path class="st7" d="M304.9,209.5c0,0,22.4-9.7,33,0.6C348.4,220.4,309.6,216.9,304.9,209.5z"/>
			<path class="st8" d="M343.5,163.1c-7.5-12.7-22.4-13.4-22.4-13.4s-14.6-1.9-23.9,17.5c-8.7,18.1-20.7,35.5-1.9,39.8l3.4-10.6
				l2.1,11.3c2.7,0.2,5.3,0.3,8,0.2c20.1-0.7,39.2,0.2,38.6-7C346.6,191.4,350.8,175.4,343.5,163.1z"/>
			<path class="st9" d="M354.1,394c0,0-9.5,17.7-15.7,17.7c-6.2,0-5.4,11.6-4.1,14.3c1.4,2.7,4.7,8.8-0.7,17.7
				c-1.9,3-1.5,6.6-0.3,9.8c3.5,9.1,17.1,6.3,16.7-3.4c0-0.1,0-0.3,0-0.3c-0.7-10.9,4.7-27.8,10.2-31.9c5.4-4.1,10.2-15,10.2-15
				L354.1,394z"/>
			<path class="st9" d="M288.9,389.9c0,0,9.5,17.7,15.7,17.7s5.4,11.6,4.1,14.3c-1.4,2.7-4.7,8.8,0.7,17.7c1.9,3,1.5,6.6,0.3,9.8
				c-3.5,9.1-17.1,6.3-16.7-3.4c0-0.1,0-0.3,0-0.3c0.7-10.9-4.7-27.8-10.2-31.9c-5.4-4.1-10.2-15-10.2-15L288.9,389.9z"/>
			<path class="st8" d="M296.3,302.9l-4.1,8.8c0,0-59.8,19.7-54.4,42.8s31.9,59.2,36.1,57.8c4.1-1.4,25.8-5.4,26.5-17
				c0.7-11.6-15.7-31.9-15.7-31.9l22.4-20.4l32.7-0.7l27.8,21.1c0,0-29.2,25.8-16.3,36.1c12.9,10.2,31.9,17,34.7,12.9
				c2.8-4.1,33.3-64.6,28.5-70c-4.8-5.4-53-25.8-53-25.8l-12.9-18.4l-50.3-2.7L296.3,302.9z"/>
			<path class="st9" d="M308.6,190.8c0,0,3.4,22.4-3.4,25.1c-6.8,2.7,13.6,14.3,13.6,14.3h11.6l7.4-15.7c0,0-6.8-12.3-2.7-23.8
				S308.6,190.8,308.6,190.8z"/>
			<path class="st10" d="M308.6,190.8c0,0,3.4,22.4-3.4,25.1c-6.8,2.7,13.6,14.3,13.6,14.3h11.6l7.4-15.7c0,0-6.8-12.3-2.7-23.8
				S308.6,190.8,308.6,190.8z"/>
			<path class="st2" d="M303.8,209.8c0,0,7.4,8.1,8.8,9.5c1.4,1.4,7.4,8.8,20.4-2c12.9-10.8,14.3,2,14.3,2v81.6c0,0-10.9-4.7-19.7,0
				s-27.2-1.4-27.2-1.4l-3.4-84.3L303.8,209.8z"/>
			<path class="st1" d="M308.8,209.8c0,0-6.3-2.7-11.8,0c-5.4,2.7-24.5,16.3-23.1,22.4c1.4,6.1,19,48.9,6.8,69.3
				c-12.3,20.4-14.3,25.8-14.3,25.8l29.9-15.7c0,0,23.1-14.3,21.1-23.1S308.8,209.8,308.8,209.8z"/>
			<path class="st1" d="M335.7,209.8c0,0,14.3,1.4,15,2.7c0.7,1.4,21.4,7.1,20.1,13.3c-1.4,6.2-20.1,60.9-11.9,71
				c8.1,10.2,21.8,24.5,17,25.8c-4.7,1.4-12.9-2-21.1,0c-8.1,2-27.2-15-25.1-33.3C331.7,270.9,329.6,214.6,335.7,209.8z"/>
			<path class="st9" d="M301.8,339.6v6.8c0,0-3.4,15.7,7.4,15c10.8-0.7,4.1-19,4.1-19l-0.7-6.1L301.8,339.6z"/>
			<path class="st9" d="M332.4,340.3c0,0-7.4,15.7,0,17c7.4,1.4,12.9-8.8,12.9-11.6S332.4,340.3,332.4,340.3z"/>
			<ellipse class="st9" cx="342.2" cy="181.5" rx="1.4" ry="2.7"/>
			<ellipse class="st9" cx="302.1" cy="181.5" rx="1.4" ry="2.7"/>
			<path class="st1" d="M354.1,218.6c0,0,17,0,16.3,6.8c-0.7,6.8-23.1,123.7-23.1,123.7s-9.5-8.8-17.7-6.8L354.1,218.6z"/>
			<path class="st1" d="M288.2,220.6c0,0-17,3.4-17,13.6c0,10.2,24.5,108.1,27.8,108.1s16.3-2,16.3-5.4
				C315.3,333.5,288.2,220.6,288.2,220.6z"/>
			<path class="st11" d="M291.9,240.7l15.3,59.8C307.2,300.5,300.1,248.2,291.9,240.7z"/>
			<path class="st11" d="M351.4,232.3l-15.5,78.2C335.9,310.5,340.9,236.8,351.4,232.3z"/>
			<circle class="st9" cx="322.2" cy="181.9" r="19.7"/>
			<polygon class="st8" points="340.2,161.8 325.5,154.1 305.2,157.3 301,175.9 311.5,175.5 314.3,168.7 314.3,175.4 319.2,175.2 
				321.9,164.3 323.7,175.9 340.9,175.5 			"/>
		</g>
	</g>
</g>
</svg>
